<svg width="72" height="72" viewBox="0 0 72 72" fill="none" xmlns="http://www.w3.org/2000/svg">
<rect width="72" height="72" rx="36" fill="#FEFCF8" fill-opacity="0.1"/>
<mask id="mask0_533_56107" style="mask-type:luminance" maskUnits="userSpaceOnUse" x="16" y="16" width="40" height="40">
<path d="M16 16H56V56H16V16Z" fill="white"/>
</mask>
<g mask="url(#mask0_533_56107)">
<path d="M39.5156 21.4688H45.6094C48.1982 21.4688 50.2969 23.5674 50.2969 26.1563V42.0156" stroke="#FEFCF8" stroke-width="1.25" stroke-miterlimit="10" stroke-linecap="round" stroke-linejoin="round"/>
<path d="M50.296 49.75C50.296 52.3388 48.1973 54.4375 45.6085 54.4375H26.3984C23.8096 54.4375 21.7109 52.3388 21.7109 49.75V26.1563C21.7109 23.5674 23.8096 21.4688 26.3984 21.4688H32.5616" stroke="#FEFCF8" stroke-width="1.25" stroke-miterlimit="10" stroke-linecap="round" stroke-linejoin="round"/>
<path d="M39.125 17.5625H32.875V23.8125C32.875 25.5384 34.2741 26.9375 36 26.9375C37.7259 26.9375 39.125 25.5384 39.125 23.8125V17.5625Z" stroke="#FEFCF8" stroke-width="1.25" stroke-miterlimit="10" stroke-linecap="round" stroke-linejoin="round"/>
<path d="M21.7812 41H27.1979L30.2188 34.8281L34.75 44.9844L38.2656 38.0313L39.8281 41H44.2812" stroke="#FEFCF8" stroke-width="1.25" stroke-miterlimit="10" stroke-linecap="round" stroke-linejoin="round"/>
</g>
</svg>
