<svg width="72" height="72" viewBox="0 0 72 72" fill="none" xmlns="http://www.w3.org/2000/svg">
<rect width="72" height="72" rx="36" fill="#FEFCF8" fill-opacity="0.1"/>
<g clip-path="url(#clip0_533_12800)">
<mask id="mask0_533_12800" style="mask-type:luminance" maskUnits="userSpaceOnUse" x="16" y="16" width="40" height="40">
<path d="M16 16H56V56H16V16Z" fill="white"/>
</mask>
<g mask="url(#mask0_533_12800)">
<path d="M54.8281 36C54.8281 46.3985 46.3985 54.8281 36 54.8281C25.6015 54.8281 17.1719 46.3985 17.1719 36C17.1719 25.6015 25.6015 17.1719 36 17.1719C46.3985 17.1719 54.8281 25.6015 54.8281 36Z" stroke="#FEFCF8" stroke-width="1.25" stroke-miterlimit="10"/>
<path d="M38.7182 40.5368C39.8905 39.4944 40.6291 37.9747 40.6291 36.2825C40.6291 36.1943 40.6271 36.1065 40.6231 36.0193C40.542 34.2385 41.9691 32.7528 43.7518 32.7528H46.528C47.7781 32.7528 48.7914 33.7662 48.7914 35.0163C48.7914 36.2664 47.7781 37.2798 46.528 37.2798H45.5453C45.0505 42.703 40.4903 46.9906 34.9384 46.934C30.008 46.8839 26.2924 43.9423 25.6775 39.0514C24.1761 37.8706 23.21 36.0375 23.21 33.9793C23.21 30.4175 26.0974 27.53 29.6593 27.53C33.2211 27.53 36.1086 30.4175 36.1086 33.9793C36.1086 37.2106 33.7321 39.8869 30.6315 40.3557" stroke="#FEFCF8" stroke-width="1.25" stroke-miterlimit="10"/>
<path d="M40.6283 36.2827V32.9214C40.6283 31.6692 39.6132 30.6541 38.361 30.6541C37.1088 30.6541 36.0938 31.6692 36.0938 32.9214V33.9794" stroke="#FEFCF8" stroke-width="1.25" stroke-miterlimit="10"/>
<path d="M39.2656 30.8772C39.9362 28.8592 41.7281 29.4546 42.3987 27.4366C43.0694 25.4183 41.2774 24.8229 41.9481 22.8046C42.6187 20.7863 44.4106 21.3817 45.0813 19.3635" stroke="#FEFCF8" stroke-width="1.25" stroke-miterlimit="10"/>
</g>
</g>
<defs>
<clipPath id="clip0_533_12800">
<rect width="40" height="40" fill="white" transform="translate(16 16)"/>
</clipPath>
</defs>
</svg>
