<svg width="72" height="72" viewBox="0 0 72 72" fill="none" xmlns="http://www.w3.org/2000/svg">
<rect width="72" height="72" rx="36" fill="#FEFCF8" fill-opacity="0.1"/>
<path d="M23.8535 26.7805H51.9267" stroke="#FEFCF8" stroke-width="1.17" stroke-miterlimit="10" stroke-linecap="round" stroke-linejoin="round"/>
<path d="M26.9995 23.8535C26.1913 23.8535 25.5361 23.1983 25.5361 22.3901V19.4633C25.5361 18.655 26.1913 17.9999 26.9995 17.9999C27.8078 17.9999 28.463 18.655 28.463 19.4633V22.3901C28.463 23.1983 27.8078 23.8535 26.9995 23.8535Z" stroke="#FEFCF8" stroke-width="1.17" stroke-miterlimit="10" stroke-linecap="round" stroke-linejoin="round"/>
<path d="M43.2437 23.8535C44.0519 23.8535 44.7071 23.1983 44.7071 22.3901V19.4633C44.7071 18.655 44.0519 17.9999 43.2437 17.9999C42.4354 17.9999 41.7803 18.655 41.7803 19.4633V22.3901C41.7803 23.1983 42.4354 23.8535 43.2437 23.8535Z" stroke="#FEFCF8" stroke-width="1.17" stroke-miterlimit="10" stroke-linecap="round" stroke-linejoin="round"/>
<path d="M52.2439 43.4146V22.4268C52.2439 21.5983 51.5723 20.9268 50.7439 20.9268H45" stroke="#FEFCF8" stroke-width="1.17" stroke-miterlimit="10" stroke-linecap="round" stroke-linejoin="round"/>
<path d="M35.3271 51.0732H42.5125" stroke="#FEFCF8" stroke-width="1.17" stroke-miterlimit="10" stroke-linecap="round" stroke-linejoin="round"/>
<path d="M25.2439 20.9269H19.5C18.6716 20.9269 18 21.5985 18 22.4269V49.5732C18 50.4017 18.6716 51.0732 19.5 51.0732H29.4732" stroke="#FEFCF8" stroke-width="1.17" stroke-miterlimit="10" stroke-linecap="round" stroke-linejoin="round"/>
<path d="M41.5364 20.9268H28.8291" stroke="#FEFCF8" stroke-width="1.17" stroke-miterlimit="10" stroke-linecap="round" stroke-linejoin="round"/>
<path d="M41.3908 47.561H21.5127V30.2927H48.7322V41.7074" stroke="#FEFCF8" stroke-width="1.17" stroke-miterlimit="10" stroke-linecap="round" stroke-linejoin="round"/>
<path d="M53.9997 47.8537C53.9997 44.4591 51.2479 41.7073 47.8534 41.7073C44.4588 41.7073 41.707 44.4591 41.707 47.8537C41.707 51.2482 44.4588 54 47.8534 54C51.2479 54 53.9997 51.2482 53.9997 47.8537Z" stroke="#FEFCF8" stroke-width="1.17" stroke-miterlimit="10" stroke-linecap="round" stroke-linejoin="round"/>
<path d="M47.9199 44.7378L47.9199 48.8656" stroke="#FEFCF8" stroke-width="1.17" stroke-linecap="round"/>
<circle cx="47.89" cy="50.6341" r="0.658537" fill="#FEFCF8"/>
<path d="M21.7559 36.0732H48.6217" stroke="#FEFCF8" stroke-width="1.17" stroke-miterlimit="10" stroke-linecap="round" stroke-linejoin="round"/>
<path d="M21.7559 41.7805H46.9022" stroke="#FEFCF8" stroke-width="1.17" stroke-miterlimit="10" stroke-linecap="round" stroke-linejoin="round"/>
<path d="M26.9561 30.2928V47.467" stroke="#FEFCF8" stroke-width="1.17" stroke-miterlimit="10" stroke-linecap="round" stroke-linejoin="round"/>
<path d="M32.4004 30.2928V47.467" stroke="#FEFCF8" stroke-width="1.17" stroke-miterlimit="10" stroke-linecap="round" stroke-linejoin="round"/>
<path d="M37.8438 30.2928V47.467" stroke="#FEFCF8" stroke-width="1.17" stroke-miterlimit="10" stroke-linecap="round" stroke-linejoin="round"/>
<path d="M43.2881 30.2926V43.6829" stroke="#FEFCF8" stroke-width="1.17" stroke-miterlimit="10" stroke-linecap="round" stroke-linejoin="round"/>
</svg>
