<svg width="21" height="21" viewBox="0 0 21 21" fill="none" xmlns="http://www.w3.org/2000/svg">
<g clip-path="url(#clip0_29_430)">
<path d="M14.1767 1.66797H5.83753C3.53475 1.66797 1.66797 3.53475 1.66797 5.83753V14.1767C1.66797 16.4794 3.53475 18.3462 5.83753 18.3462H14.1767C16.4794 18.3462 18.3462 16.4794 18.3462 14.1767V5.83753C18.3462 3.53475 16.4794 1.66797 14.1767 1.66797Z" stroke="#007276" stroke-width="1.66782" stroke-linecap="round" stroke-linejoin="round"/>
<path d="M13.3462 9.48113C13.4491 10.1752 13.3305 10.884 13.0074 11.5067C12.6843 12.1295 12.173 12.6345 11.5463 12.9499C10.9196 13.2654 10.2094 13.3752 9.51666 13.2637C8.82396 13.1522 8.18404 12.8252 7.68793 12.3291C7.19182 11.833 6.86477 11.1931 6.75331 10.5004C6.64184 9.80765 6.75164 9.09745 7.06707 8.47074C7.38251 7.84404 7.88752 7.33276 8.51029 7.00962C9.13305 6.68648 9.84186 6.56793 10.5359 6.67085C11.2438 6.77583 11.8992 7.1057 12.4053 7.61176C12.9113 8.11781 13.2412 8.77321 13.3462 9.48113Z" stroke="#007276" stroke-width="1.66782" stroke-linecap="round" stroke-linejoin="round"/>
<path d="M14.5977 5.42188H14.606" stroke="#007276" stroke-width="1.66782" stroke-linecap="round" stroke-linejoin="round"/>
</g>
<defs>
<clipPath id="clip0_29_430">
<rect width="20.0139" height="20.0139" fill="white"/>
</clipPath>
</defs>
</svg>
