<svg width="25" height="27" viewBox="0 0 25 27" fill="none" xmlns="http://www.w3.org/2000/svg">
<path d="M22.2036 19.4966V22.5241C22.2047 22.8052 22.1471 23.0834 22.0345 23.3409C21.9219 23.5984 21.7568 23.8296 21.5497 24.0196C21.3426 24.2096 21.0981 24.3542 20.8318 24.4443C20.5656 24.5343 20.2835 24.5678 20.0035 24.5425C16.8981 24.205 13.9151 23.1439 11.2943 21.4443C8.85593 19.8949 6.78863 17.8275 5.2392 15.3892C3.53365 12.7564 2.47226 9.75895 2.141 6.63957C2.11578 6.3605 2.14895 6.07923 2.23839 5.81368C2.32783 5.54813 2.47158 5.30411 2.6605 5.09716C2.84941 4.8902 3.07935 4.72486 3.33567 4.61164C3.59198 4.49842 3.86907 4.43981 4.14928 4.43955H7.17683C7.66659 4.43473 8.1414 4.60816 8.51275 4.92752C8.88409 5.24688 9.12665 5.69038 9.19519 6.17535C9.32298 7.14423 9.55996 8.09555 9.90162 9.01115C10.0374 9.37236 10.0668 9.76492 9.9863 10.1423C9.90581 10.5197 9.71882 10.8661 9.44749 11.1405L8.16583 12.4222C9.60246 14.9487 11.6944 17.0407 14.2209 18.4773L15.5026 17.1956C15.777 16.9243 16.1234 16.7373 16.5008 16.6568C16.8782 16.5763 17.2708 16.6057 17.632 16.7415C18.5476 17.0832 19.4989 17.3201 20.4678 17.4479C20.958 17.5171 21.4057 17.764 21.7258 18.1417C22.0458 18.5195 22.2158 19.0016 22.2036 19.4966Z" stroke="#FEFAF3" stroke-width="2.01837" stroke-linecap="round" stroke-linejoin="round"/>
</svg>
